<svg xmlns="http://www.w3.org/2000/svg" xmlns:xlink="http://www.w3.org/1999/xlink" width="300" zoomAndPan="magnify" viewBox="0 0 224.87999 74.999997" height="100" preserveAspectRatio="xMidYMid meet" version="1.0"><defs><g/><clipPath id="id1"><path d="M 1.480469 5.015625 L 60.699219 5.015625 L 60.699219 70.230469 L 1.480469 70.230469 Z M 1.480469 5.015625 " clip-rule="nonzero"/></clipPath></defs><g clip-path="url(#id1)"><path fill="rgb(25.489807%, 68.629456%, 43.528748%)" d="M 21.160156 45.292969 C 21.175781 46.648438 20.199219 47.644531 18.84375 47.65625 C 17.496094 47.664062 16.488281 46.675781 16.476562 45.332031 C 16.46875 44.023438 17.511719 42.9375 18.800781 42.917969 C 20.070312 42.894531 21.148438 43.984375 21.160156 45.292969 Z M 43.507812 47.65625 C 42.152344 47.621094 41.164062 46.601562 41.195312 45.265625 C 41.226562 43.957031 42.355469 42.863281 43.601562 42.925781 C 44.90625 42.996094 45.96875 44.097656 45.945312 45.363281 C 45.925781 46.660156 44.828125 47.6875 43.507812 47.65625 Z M 31.40625 57.8125 C 28.808594 57.757812 26.828125 57.011719 25.125 55.523438 C 24.441406 54.925781 23.980469 54.238281 24.6875 53.449219 C 25.335938 52.71875 26.042969 53.03125 26.71875 53.597656 C 29.507812 55.9375 32.859375 55.925781 35.703125 53.566406 C 36.390625 52.996094 37.070312 52.746094 37.722656 53.488281 C 38.394531 54.253906 37.964844 54.894531 37.324219 55.46875 C 35.542969 57.074219 33.433594 57.789062 31.40625 57.8125 Z M 55.199219 49.390625 L 53.488281 49.390625 C 52.78125 49.390625 52.195312 49.9375 52.144531 50.640625 C 51.40625 61.226562 43.535156 67.542969 31.09375 67.542969 C 18.648438 67.542969 10.777344 61.226562 10.039062 50.640625 C 9.988281 49.9375 9.402344 49.390625 8.699219 49.390625 L 6.984375 49.390625 C 5.460938 49.390625 4.21875 47.957031 4.21875 46.195312 C 4.21875 44.433594 5.460938 43 6.984375 43 L 8.695312 43 C 9.402344 43 9.988281 42.453125 10.035156 41.746094 C 10.824219 30.042969 19.875 21.214844 31.09375 21.214844 C 42.308594 21.214844 51.359375 30.042969 52.148438 41.746094 C 52.195312 42.453125 52.78125 43 53.488281 43 L 55.199219 43 C 56.722656 43 57.964844 44.433594 57.964844 46.195312 C 57.964844 47.957031 56.722656 49.390625 55.199219 49.390625 Z M 55.199219 40.3125 L 54.714844 40.3125 C 53.34375 28.289062 44.089844 19.253906 32.496094 18.574219 C 31.59375 18.351562 30.839844 17.910156 30.167969 17.1875 C 28.828125 15.738281 28.28125 13.996094 28.535156 12.046875 C 28.949219 8.894531 32.105469 6.957031 34.945312 8.078125 C 36.585938 8.722656 37.484375 10.511719 37.015625 12.1875 C 36.582031 13.742188 35.476562 14.320312 33.574219 13.972656 C 32.769531 13.828125 32.207031 14.144531 32.007812 14.898438 C 31.800781 15.671875 32.183594 16.214844 32.960938 16.433594 C 35.046875 17.015625 36.878906 16.5625 38.316406 14.9375 C 39.929688 13.117188 40.101562 11.007812 39.171875 8.832031 C 38.164062 6.46875 35.695312 5.015625 33.046875 5.105469 C 30.105469 5.203125 27.304688 7.140625 26.40625 9.738281 C 24.738281 13.648438 27.042969 17.488281 27.90625 18.746094 C 17.15625 20.195312 8.769531 28.914062 7.46875 40.3125 L 6.984375 40.3125 C 3.976562 40.3125 1.53125 42.953125 1.53125 46.195312 C 1.53125 49.4375 3.976562 52.074219 6.984375 52.074219 L 7.476562 52.074219 C 8.839844 63.308594 17.773438 70.230469 31.09375 70.230469 C 44.410156 70.230469 53.34375 63.308594 54.707031 52.074219 L 55.199219 52.074219 C 58.207031 52.074219 60.652344 49.4375 60.652344 46.195312 C 60.652344 42.953125 58.207031 40.3125 55.199219 40.3125 " fill-opacity="1" fill-rule="nonzero"/></g><g fill="rgb(25.489807%, 68.629456%, 43.528748%)" fill-opacity="1"><g transform="translate(62.995494, 56.721923)"><g><path d="M 17.734375 -2.90625 L 17.734375 0 L 3.265625 0 L 3.265625 -25.53125 L 6.703125 -25.53125 L 6.703125 -2.90625 Z M 17.734375 -2.90625 "/></g></g></g><g fill="rgb(25.489807%, 68.629456%, 43.528748%)" fill-opacity="1"><g transform="translate(81.285099, 56.721923)"><g><path d="M 14.59375 -10.984375 C 14.59375 -11.722656 14.488281 -12.394531 14.28125 -13 C 14.070312 -13.613281 13.765625 -14.144531 13.359375 -14.59375 C 12.960938 -15.039062 12.476562 -15.382812 11.90625 -15.625 C 11.34375 -15.875 10.695312 -16 9.96875 -16 C 8.445312 -16 7.242188 -15.554688 6.359375 -14.671875 C 5.484375 -13.785156 4.9375 -12.554688 4.71875 -10.984375 Z M 17.15625 -2.53125 C 16.757812 -2.050781 16.285156 -1.632812 15.734375 -1.28125 C 15.191406 -0.9375 14.609375 -0.648438 13.984375 -0.421875 C 13.367188 -0.203125 12.726562 -0.0351562 12.0625 0.078125 C 11.394531 0.191406 10.734375 0.25 10.078125 0.25 C 8.835938 0.25 7.691406 0.0390625 6.640625 -0.375 C 5.585938 -0.800781 4.675781 -1.421875 3.90625 -2.234375 C 3.144531 -3.046875 2.550781 -4.050781 2.125 -5.25 C 1.695312 -6.445312 1.484375 -7.828125 1.484375 -9.390625 C 1.484375 -10.648438 1.675781 -11.820312 2.0625 -12.90625 C 2.445312 -14 3 -14.945312 3.71875 -15.75 C 4.445312 -16.550781 5.332031 -17.179688 6.375 -17.640625 C 7.414062 -18.097656 8.59375 -18.328125 9.90625 -18.328125 C 10.988281 -18.328125 11.988281 -18.144531 12.90625 -17.78125 C 13.820312 -17.425781 14.613281 -16.90625 15.28125 -16.21875 C 15.957031 -15.53125 16.484375 -14.6875 16.859375 -13.6875 C 17.242188 -12.6875 17.4375 -11.546875 17.4375 -10.265625 C 17.4375 -9.765625 17.382812 -9.429688 17.28125 -9.265625 C 17.175781 -9.097656 16.972656 -9.015625 16.671875 -9.015625 L 4.609375 -9.015625 C 4.648438 -7.867188 4.804688 -6.875 5.078125 -6.03125 C 5.359375 -5.195312 5.75 -4.492188 6.25 -3.921875 C 6.75 -3.359375 7.34375 -2.9375 8.03125 -2.65625 C 8.71875 -2.382812 9.488281 -2.25 10.34375 -2.25 C 11.144531 -2.25 11.832031 -2.335938 12.40625 -2.515625 C 12.976562 -2.703125 13.472656 -2.898438 13.890625 -3.109375 C 14.304688 -3.328125 14.65625 -3.523438 14.9375 -3.703125 C 15.21875 -3.890625 15.457031 -3.984375 15.65625 -3.984375 C 15.914062 -3.984375 16.117188 -3.882812 16.265625 -3.6875 Z M 17.15625 -2.53125 "/></g></g></g><g fill="rgb(25.489807%, 68.629456%, 43.528748%)" fill-opacity="1"><g transform="translate(100.091163, 56.721923)"><g><path d="M 15.0625 -14.84375 C 14.96875 -14.707031 14.875 -14.601562 14.78125 -14.53125 C 14.6875 -14.457031 14.554688 -14.421875 14.390625 -14.421875 C 14.210938 -14.421875 14.015625 -14.492188 13.796875 -14.640625 C 13.585938 -14.796875 13.328125 -14.960938 13.015625 -15.140625 C 12.703125 -15.316406 12.316406 -15.476562 11.859375 -15.625 C 11.398438 -15.78125 10.835938 -15.859375 10.171875 -15.859375 C 9.273438 -15.859375 8.488281 -15.695312 7.8125 -15.375 C 7.132812 -15.0625 6.566406 -14.609375 6.109375 -14.015625 C 5.660156 -13.421875 5.316406 -12.703125 5.078125 -11.859375 C 4.847656 -11.015625 4.734375 -10.070312 4.734375 -9.03125 C 4.734375 -7.9375 4.859375 -6.960938 5.109375 -6.109375 C 5.359375 -5.265625 5.710938 -4.550781 6.171875 -3.96875 C 6.628906 -3.394531 7.179688 -2.957031 7.828125 -2.65625 C 8.472656 -2.351562 9.203125 -2.203125 10.015625 -2.203125 C 10.785156 -2.203125 11.421875 -2.296875 11.921875 -2.484375 C 12.421875 -2.671875 12.832031 -2.875 13.15625 -3.09375 C 13.476562 -3.320312 13.75 -3.523438 13.96875 -3.703125 C 14.1875 -3.890625 14.40625 -3.984375 14.625 -3.984375 C 14.882812 -3.984375 15.085938 -3.882812 15.234375 -3.6875 L 16.125 -2.53125 C 15.726562 -2.039062 15.28125 -1.625 14.78125 -1.28125 C 14.28125 -0.9375 13.742188 -0.648438 13.171875 -0.421875 C 12.597656 -0.191406 11.992188 -0.0234375 11.359375 0.078125 C 10.734375 0.191406 10.09375 0.25 9.4375 0.25 C 8.3125 0.25 7.265625 0.0390625 6.296875 -0.375 C 5.328125 -0.789062 4.484375 -1.390625 3.765625 -2.171875 C 3.054688 -2.960938 2.5 -3.9375 2.09375 -5.09375 C 1.695312 -6.25 1.5 -7.5625 1.5 -9.03125 C 1.5 -10.375 1.6875 -11.613281 2.0625 -12.75 C 2.4375 -13.894531 2.984375 -14.878906 3.703125 -15.703125 C 4.421875 -16.523438 5.300781 -17.164062 6.34375 -17.625 C 7.394531 -18.09375 8.601562 -18.328125 9.96875 -18.328125 C 11.238281 -18.328125 12.359375 -18.117188 13.328125 -17.703125 C 14.296875 -17.296875 15.15625 -16.722656 15.90625 -15.984375 Z M 15.0625 -14.84375 "/></g></g></g><g fill="rgb(25.489807%, 68.629456%, 43.528748%)" fill-opacity="1"><g transform="translate(117.098535, 56.721923)"><g><path d="M 5.703125 -15.640625 C 6.472656 -16.460938 7.328125 -17.113281 8.265625 -17.59375 C 9.203125 -18.082031 10.28125 -18.328125 11.5 -18.328125 C 12.488281 -18.328125 13.359375 -18.160156 14.109375 -17.828125 C 14.867188 -17.503906 15.5 -17.039062 16 -16.4375 C 16.507812 -15.84375 16.894531 -15.125 17.15625 -14.28125 C 17.414062 -13.4375 17.546875 -12.503906 17.546875 -11.484375 L 17.546875 0 L 14.359375 0 L 14.359375 -11.484375 C 14.359375 -12.847656 14.046875 -13.90625 13.421875 -14.65625 C 12.796875 -15.414062 11.847656 -15.796875 10.578125 -15.796875 C 9.640625 -15.796875 8.765625 -15.570312 7.953125 -15.125 C 7.140625 -14.675781 6.390625 -14.0625 5.703125 -13.28125 L 5.703125 0 L 2.515625 0 L 2.515625 -26.234375 L 5.703125 -26.234375 Z M 5.703125 -15.640625 "/></g></g></g><g fill="rgb(25.489807%, 68.629456%, 43.528748%)" fill-opacity="1"><g transform="translate(136.973125, 56.721923)"><g><path d="M 5.859375 -18.046875 L 5.859375 0 L 2.6875 0 L 2.6875 -18.046875 Z M 6.53125 -23.703125 C 6.53125 -23.398438 6.46875 -23.113281 6.34375 -22.84375 C 6.21875 -22.570312 6.050781 -22.332031 5.84375 -22.125 C 5.644531 -21.914062 5.40625 -21.753906 5.125 -21.640625 C 4.84375 -21.523438 4.546875 -21.46875 4.234375 -21.46875 C 3.929688 -21.46875 3.644531 -21.523438 3.375 -21.640625 C 3.101562 -21.753906 2.867188 -21.914062 2.671875 -22.125 C 2.472656 -22.332031 2.3125 -22.570312 2.1875 -22.84375 C 2.070312 -23.113281 2.015625 -23.398438 2.015625 -23.703125 C 2.015625 -24.015625 2.070312 -24.3125 2.1875 -24.59375 C 2.3125 -24.875 2.472656 -25.113281 2.671875 -25.3125 C 2.867188 -25.519531 3.101562 -25.679688 3.375 -25.796875 C 3.644531 -25.921875 3.929688 -25.984375 4.234375 -25.984375 C 4.546875 -25.984375 4.84375 -25.921875 5.125 -25.796875 C 5.40625 -25.679688 5.644531 -25.519531 5.84375 -25.3125 C 6.050781 -25.113281 6.21875 -24.875 6.34375 -24.59375 C 6.46875 -24.3125 6.53125 -24.015625 6.53125 -23.703125 Z M 6.53125 -23.703125 "/></g></g></g><g fill="rgb(25.489807%, 68.629456%, 43.528748%)" fill-opacity="1"><g transform="translate(145.521339, 56.721923)"><g><path d="M 8.046875 0.28125 C 6.617188 0.28125 5.519531 -0.113281 4.75 -0.90625 C 3.988281 -1.707031 3.609375 -2.851562 3.609375 -4.34375 L 3.609375 -15.390625 L 1.4375 -15.390625 C 1.25 -15.390625 1.085938 -15.445312 0.953125 -15.5625 C 0.828125 -15.675781 0.765625 -15.847656 0.765625 -16.078125 L 0.765625 -17.34375 L 3.71875 -17.71875 L 4.453125 -23.296875 C 4.484375 -23.472656 4.5625 -23.617188 4.6875 -23.734375 C 4.8125 -23.847656 4.976562 -23.90625 5.1875 -23.90625 L 6.78125 -23.90625 L 6.78125 -17.6875 L 12 -17.6875 L 12 -15.390625 L 6.78125 -15.390625 L 6.78125 -4.5625 C 6.78125 -3.800781 6.960938 -3.234375 7.328125 -2.859375 C 7.703125 -2.492188 8.179688 -2.3125 8.765625 -2.3125 C 9.097656 -2.3125 9.382812 -2.351562 9.625 -2.4375 C 9.875 -2.53125 10.085938 -2.628906 10.265625 -2.734375 C 10.441406 -2.847656 10.59375 -2.945312 10.71875 -3.03125 C 10.84375 -3.125 10.953125 -3.171875 11.046875 -3.171875 C 11.210938 -3.171875 11.359375 -3.070312 11.484375 -2.875 L 12.421875 -1.359375 C 11.867188 -0.847656 11.207031 -0.445312 10.4375 -0.15625 C 9.664062 0.132812 8.867188 0.28125 8.046875 0.28125 Z M 8.046875 0.28125 "/></g></g></g><g fill="rgb(25.489807%, 68.629456%, 43.528748%)" fill-opacity="1"><g transform="translate(158.290228, 56.721923)"><g><path d="M 16.8125 -9.46875 L 12.8125 -19.859375 C 12.6875 -20.171875 12.554688 -20.53125 12.421875 -20.9375 C 12.296875 -21.34375 12.175781 -21.78125 12.0625 -22.25 C 11.8125 -21.289062 11.554688 -20.488281 11.296875 -19.84375 L 7.28125 -9.46875 Z M 24.015625 0 L 21.34375 0 C 21.03125 0 20.78125 -0.078125 20.59375 -0.234375 C 20.40625 -0.390625 20.257812 -0.582031 20.15625 -0.8125 L 17.78125 -6.984375 L 6.328125 -6.984375 L 3.9375 -0.8125 C 3.863281 -0.601562 3.722656 -0.414062 3.515625 -0.25 C 3.316406 -0.0820312 3.070312 0 2.78125 0 L 0.109375 0 L 10.3125 -25.53125 L 13.796875 -25.53125 Z M 24.015625 0 "/></g></g></g><g fill="rgb(25.489807%, 68.629456%, 43.528748%)" fill-opacity="1"><g transform="translate(182.403301, 56.721923)"><g><path d="M 5.703125 -4.34375 C 6.285156 -3.5625 6.921875 -3.007812 7.609375 -2.6875 C 8.296875 -2.363281 9.066406 -2.203125 9.921875 -2.203125 C 11.609375 -2.203125 12.898438 -2.800781 13.796875 -4 C 14.703125 -5.207031 15.15625 -6.921875 15.15625 -9.140625 C 15.15625 -10.316406 15.050781 -11.328125 14.84375 -12.171875 C 14.632812 -13.015625 14.332031 -13.703125 13.9375 -14.234375 C 13.550781 -14.773438 13.070312 -15.171875 12.5 -15.421875 C 11.9375 -15.671875 11.289062 -15.796875 10.5625 -15.796875 C 9.53125 -15.796875 8.625 -15.554688 7.84375 -15.078125 C 7.0625 -14.609375 6.347656 -13.941406 5.703125 -13.078125 Z M 5.546875 -15.25 C 6.296875 -16.1875 7.171875 -16.9375 8.171875 -17.5 C 9.171875 -18.070312 10.3125 -18.359375 11.59375 -18.359375 C 12.632812 -18.359375 13.578125 -18.160156 14.421875 -17.765625 C 15.265625 -17.367188 15.984375 -16.78125 16.578125 -16 C 17.171875 -15.226562 17.628906 -14.265625 17.953125 -13.109375 C 18.273438 -11.953125 18.4375 -10.628906 18.4375 -9.140625 C 18.4375 -7.804688 18.253906 -6.566406 17.890625 -5.421875 C 17.535156 -4.273438 17.023438 -3.28125 16.359375 -2.4375 C 15.691406 -1.601562 14.875 -0.945312 13.90625 -0.46875 C 12.9375 0.0078125 11.847656 0.25 10.640625 0.25 C 9.535156 0.25 8.585938 0.0625 7.796875 -0.3125 C 7.003906 -0.6875 6.304688 -1.207031 5.703125 -1.875 L 5.703125 6.109375 L 2.515625 6.109375 L 2.515625 -18.046875 L 4.421875 -18.046875 C 4.867188 -18.046875 5.144531 -17.828125 5.25 -17.390625 Z M 5.546875 -15.25 "/></g></g></g><g fill="rgb(25.489807%, 68.629456%, 43.528748%)" fill-opacity="1"><g transform="translate(202.366924, 56.721923)"><g><path d="M 5.703125 -4.34375 C 6.285156 -3.5625 6.921875 -3.007812 7.609375 -2.6875 C 8.296875 -2.363281 9.066406 -2.203125 9.921875 -2.203125 C 11.609375 -2.203125 12.898438 -2.800781 13.796875 -4 C 14.703125 -5.207031 15.15625 -6.921875 15.15625 -9.140625 C 15.15625 -10.316406 15.050781 -11.328125 14.84375 -12.171875 C 14.632812 -13.015625 14.332031 -13.703125 13.9375 -14.234375 C 13.550781 -14.773438 13.070312 -15.171875 12.5 -15.421875 C 11.9375 -15.671875 11.289062 -15.796875 10.5625 -15.796875 C 9.53125 -15.796875 8.625 -15.554688 7.84375 -15.078125 C 7.0625 -14.609375 6.347656 -13.941406 5.703125 -13.078125 Z M 5.546875 -15.25 C 6.296875 -16.1875 7.171875 -16.9375 8.171875 -17.5 C 9.171875 -18.070312 10.3125 -18.359375 11.59375 -18.359375 C 12.632812 -18.359375 13.578125 -18.160156 14.421875 -17.765625 C 15.265625 -17.367188 15.984375 -16.78125 16.578125 -16 C 17.171875 -15.226562 17.628906 -14.265625 17.953125 -13.109375 C 18.273438 -11.953125 18.4375 -10.628906 18.4375 -9.140625 C 18.4375 -7.804688 18.253906 -6.566406 17.890625 -5.421875 C 17.535156 -4.273438 17.023438 -3.28125 16.359375 -2.4375 C 15.691406 -1.601562 14.875 -0.945312 13.90625 -0.46875 C 12.9375 0.0078125 11.847656 0.25 10.640625 0.25 C 9.535156 0.25 8.585938 0.0625 7.796875 -0.3125 C 7.003906 -0.6875 6.304688 -1.207031 5.703125 -1.875 L 5.703125 6.109375 L 2.515625 6.109375 L 2.515625 -18.046875 L 4.421875 -18.046875 C 4.867188 -18.046875 5.144531 -17.828125 5.25 -17.390625 Z M 5.546875 -15.25 "/></g></g></g></svg>