<svg xmlns="http://www.w3.org/2000/svg" xmlns:xlink="http://www.w3.org/1999/xlink" width="300" zoomAndPan="magnify" viewBox="0 0 224.87999 74.999997" height="100" preserveAspectRatio="xMidYMid meet" version="1.0"><defs><g/><clipPath id="id1"><path d="M 7.496094 5.015625 L 66.714844 5.015625 L 66.714844 70.230469 L 7.496094 70.230469 Z M 7.496094 5.015625 " clip-rule="nonzero"/></clipPath></defs><g clip-path="url(#id1)"><path fill="rgb(25.489807%, 68.629456%, 43.528748%)" d="M 27.175781 45.292969 C 27.191406 46.648438 26.214844 47.644531 24.859375 47.65625 C 23.511719 47.664062 22.503906 46.675781 22.492188 45.332031 C 22.480469 44.023438 23.527344 42.9375 24.816406 42.917969 C 26.085938 42.894531 27.164062 43.984375 27.175781 45.292969 Z M 49.519531 47.65625 C 48.164062 47.621094 47.179688 46.601562 47.210938 45.265625 C 47.242188 43.957031 48.371094 42.863281 49.617188 42.925781 C 50.921875 42.996094 51.980469 44.097656 51.960938 45.363281 C 51.941406 46.660156 50.84375 47.6875 49.519531 47.65625 Z M 37.421875 57.8125 C 34.824219 57.757812 32.84375 57.011719 31.140625 55.523438 C 30.453125 54.925781 29.992188 54.238281 30.699219 53.449219 C 31.351562 52.71875 32.058594 53.03125 32.730469 53.597656 C 35.523438 55.9375 38.871094 55.925781 41.714844 53.566406 C 42.40625 52.996094 43.082031 52.746094 43.734375 53.488281 C 44.410156 54.253906 43.976562 54.894531 43.339844 55.46875 C 41.558594 57.074219 39.449219 57.789062 37.421875 57.8125 Z M 61.214844 49.390625 L 59.5 49.390625 C 58.796875 49.390625 58.210938 49.9375 58.160156 50.640625 C 57.421875 61.226562 49.550781 67.542969 37.105469 67.542969 C 24.660156 67.542969 16.792969 61.226562 16.050781 50.640625 C 16.003906 49.9375 15.417969 49.390625 14.710938 49.390625 L 13 49.390625 C 11.472656 49.390625 10.234375 47.957031 10.234375 46.195312 C 10.234375 44.433594 11.472656 43 13 43 L 14.710938 43 C 15.417969 43 16.003906 42.453125 16.050781 41.746094 C 16.835938 30.042969 25.890625 21.214844 37.105469 21.214844 C 48.324219 21.214844 57.375 30.042969 58.164062 41.746094 C 58.210938 42.453125 58.796875 43 59.503906 43 L 61.214844 43 C 62.738281 43 63.980469 44.433594 63.980469 46.195312 C 63.980469 47.957031 62.738281 49.390625 61.214844 49.390625 Z M 61.214844 40.3125 L 60.730469 40.3125 C 59.359375 28.289062 50.105469 19.253906 38.511719 18.574219 C 37.609375 18.351562 36.855469 17.910156 36.183594 17.1875 C 34.84375 15.738281 34.296875 13.996094 34.550781 12.046875 C 34.964844 8.894531 38.121094 6.957031 40.960938 8.078125 C 42.601562 8.722656 43.5 10.511719 43.03125 12.1875 C 42.597656 13.742188 41.492188 14.320312 39.589844 13.972656 C 38.785156 13.828125 38.222656 14.144531 38.023438 14.898438 C 37.8125 15.671875 38.199219 16.214844 38.976562 16.433594 C 41.058594 17.015625 42.894531 16.5625 44.332031 14.9375 C 45.945312 13.117188 46.117188 11.007812 45.1875 8.832031 C 44.175781 6.46875 41.710938 5.015625 39.0625 5.105469 C 36.121094 5.203125 33.320312 7.140625 32.421875 9.738281 C 30.753906 13.648438 33.058594 17.488281 33.921875 18.746094 C 23.171875 20.195312 14.78125 28.914062 13.484375 40.3125 L 13 40.3125 C 9.992188 40.3125 7.546875 42.953125 7.546875 46.195312 C 7.546875 49.4375 9.992188 52.074219 13 52.074219 L 13.492188 52.074219 C 14.855469 63.308594 23.789062 70.230469 37.105469 70.230469 C 50.425781 70.230469 59.359375 63.308594 60.722656 52.074219 L 61.214844 52.074219 C 64.222656 52.074219 66.667969 49.4375 66.667969 46.195312 C 66.667969 42.953125 64.222656 40.3125 61.214844 40.3125 " fill-opacity="1" fill-rule="nonzero"/></g><g fill="rgb(25.489807%, 68.629456%, 43.528748%)" fill-opacity="1"><g transform="translate(76.760278, 46.929449)"><g><path d="M 12.734375 -3.0625 L 12.734375 0 L 1.90625 0 L 1.90625 -18.234375 L 5.6875 -18.234375 L 5.6875 -3.0625 Z M 12.734375 -3.0625 "/></g></g></g><g fill="rgb(25.489807%, 68.629456%, 43.528748%)" fill-opacity="1"><g transform="translate(89.883395, 46.929449)"><g><path d="M 9.65625 -8 C 9.65625 -8.363281 9.601562 -8.707031 9.5 -9.03125 C 9.40625 -9.363281 9.253906 -9.65625 9.046875 -9.90625 C 8.835938 -10.15625 8.570312 -10.351562 8.25 -10.5 C 7.9375 -10.644531 7.554688 -10.71875 7.109375 -10.71875 C 6.285156 -10.71875 5.640625 -10.484375 5.171875 -10.015625 C 4.703125 -9.546875 4.394531 -8.875 4.25 -8 Z M 4.203125 -5.953125 C 4.304688 -4.734375 4.648438 -3.84375 5.234375 -3.28125 C 5.816406 -2.71875 6.578125 -2.4375 7.515625 -2.4375 C 7.992188 -2.4375 8.40625 -2.492188 8.75 -2.609375 C 9.101562 -2.722656 9.410156 -2.847656 9.671875 -2.984375 C 9.929688 -3.117188 10.164062 -3.242188 10.375 -3.359375 C 10.59375 -3.472656 10.8125 -3.53125 11.03125 -3.53125 C 11.289062 -3.53125 11.5 -3.429688 11.65625 -3.234375 L 12.65625 -1.96875 C 12.289062 -1.539062 11.882812 -1.1875 11.4375 -0.90625 C 10.988281 -0.625 10.523438 -0.398438 10.046875 -0.234375 C 9.578125 -0.078125 9.097656 0.03125 8.609375 0.09375 C 8.117188 0.15625 7.648438 0.1875 7.203125 0.1875 C 6.296875 0.1875 5.453125 0.0390625 4.671875 -0.25 C 3.890625 -0.550781 3.207031 -0.992188 2.625 -1.578125 C 2.039062 -2.160156 1.578125 -2.882812 1.234375 -3.75 C 0.898438 -4.613281 0.734375 -5.613281 0.734375 -6.75 C 0.734375 -7.625 0.878906 -8.453125 1.171875 -9.234375 C 1.460938 -10.015625 1.878906 -10.691406 2.421875 -11.265625 C 2.972656 -11.847656 3.632812 -12.304688 4.40625 -12.640625 C 5.1875 -12.984375 6.066406 -13.15625 7.046875 -13.15625 C 7.878906 -13.15625 8.644531 -13.023438 9.34375 -12.765625 C 10.039062 -12.503906 10.644531 -12.117188 11.15625 -11.609375 C 11.664062 -11.109375 12.0625 -10.488281 12.34375 -9.75 C 12.625 -9.019531 12.765625 -8.1875 12.765625 -7.25 C 12.765625 -6.988281 12.75 -6.773438 12.71875 -6.609375 C 12.695312 -6.441406 12.65625 -6.304688 12.59375 -6.203125 C 12.53125 -6.109375 12.445312 -6.039062 12.34375 -6 C 12.25 -5.96875 12.125 -5.953125 11.96875 -5.953125 Z M 4.203125 -5.953125 "/></g></g></g><g fill="rgb(25.489807%, 68.629456%, 43.528748%)" fill-opacity="1"><g transform="translate(103.358478, 46.929449)"><g><path d="M 10.828125 -10.0625 C 10.734375 -9.9375 10.632812 -9.835938 10.53125 -9.765625 C 10.4375 -9.691406 10.296875 -9.65625 10.109375 -9.65625 C 9.941406 -9.65625 9.78125 -9.703125 9.625 -9.796875 C 9.46875 -9.890625 9.285156 -9.992188 9.078125 -10.109375 C 8.878906 -10.222656 8.640625 -10.328125 8.359375 -10.421875 C 8.085938 -10.523438 7.75 -10.578125 7.34375 -10.578125 C 6.820312 -10.578125 6.367188 -10.476562 5.984375 -10.28125 C 5.609375 -10.09375 5.289062 -9.820312 5.03125 -9.46875 C 4.78125 -9.125 4.59375 -8.695312 4.46875 -8.1875 C 4.351562 -7.6875 4.296875 -7.125 4.296875 -6.5 C 4.296875 -5.175781 4.5625 -4.160156 5.09375 -3.453125 C 5.625 -2.753906 6.351562 -2.40625 7.28125 -2.40625 C 7.59375 -2.40625 7.863281 -2.429688 8.09375 -2.484375 C 8.332031 -2.535156 8.535156 -2.601562 8.703125 -2.6875 C 8.878906 -2.769531 9.03125 -2.863281 9.15625 -2.96875 C 9.28125 -3.070312 9.394531 -3.164062 9.5 -3.25 C 9.613281 -3.332031 9.726562 -3.398438 9.84375 -3.453125 C 9.957031 -3.503906 10.085938 -3.53125 10.234375 -3.53125 C 10.503906 -3.53125 10.710938 -3.429688 10.859375 -3.234375 L 11.859375 -1.96875 C 11.484375 -1.539062 11.085938 -1.1875 10.671875 -0.90625 C 10.253906 -0.625 9.820312 -0.398438 9.375 -0.234375 C 8.925781 -0.078125 8.46875 0.03125 8 0.09375 C 7.539062 0.15625 7.085938 0.1875 6.640625 0.1875 C 5.835938 0.1875 5.082031 0.0390625 4.375 -0.25 C 3.664062 -0.550781 3.039062 -0.984375 2.5 -1.546875 C 1.96875 -2.117188 1.539062 -2.820312 1.21875 -3.65625 C 0.90625 -4.488281 0.75 -5.4375 0.75 -6.5 C 0.75 -7.445312 0.882812 -8.328125 1.15625 -9.140625 C 1.4375 -9.953125 1.84375 -10.65625 2.375 -11.25 C 2.914062 -11.84375 3.582031 -12.304688 4.375 -12.640625 C 5.164062 -12.984375 6.082031 -13.15625 7.125 -13.15625 C 8.113281 -13.15625 8.976562 -12.992188 9.71875 -12.671875 C 10.46875 -12.359375 11.140625 -11.898438 11.734375 -11.296875 Z M 10.828125 -10.0625 "/></g></g></g><g fill="rgb(25.489807%, 68.629456%, 43.528748%)" fill-opacity="1"><g transform="translate(115.526271, 46.929449)"><g><path d="M 4.90625 -11.6875 C 5.144531 -11.90625 5.394531 -12.101562 5.65625 -12.28125 C 5.925781 -12.46875 6.207031 -12.625 6.5 -12.75 C 6.800781 -12.882812 7.117188 -12.984375 7.453125 -13.046875 C 7.796875 -13.117188 8.164062 -13.15625 8.5625 -13.15625 C 9.257812 -13.15625 9.878906 -13.035156 10.421875 -12.796875 C 10.972656 -12.554688 11.4375 -12.21875 11.8125 -11.78125 C 12.1875 -11.34375 12.46875 -10.820312 12.65625 -10.21875 C 12.84375 -9.613281 12.9375 -8.953125 12.9375 -8.234375 L 12.9375 0 L 9.484375 0 L 9.484375 -8.234375 C 9.484375 -8.953125 9.3125 -9.507812 8.96875 -9.90625 C 8.632812 -10.3125 8.140625 -10.515625 7.484375 -10.515625 C 7.003906 -10.515625 6.550781 -10.40625 6.125 -10.1875 C 5.695312 -9.976562 5.289062 -9.6875 4.90625 -9.3125 L 4.90625 0 L 1.4375 0 L 1.4375 -18.75 L 4.90625 -18.75 Z M 4.90625 -11.6875 "/></g></g></g><g fill="rgb(25.489807%, 68.629456%, 43.528748%)" fill-opacity="1"><g transform="translate(129.780695, 46.929449)"><g><path d="M 5 -12.953125 L 5 0 L 1.53125 0 L 1.53125 -12.953125 Z M 5.421875 -16.640625 C 5.421875 -16.347656 5.359375 -16.078125 5.234375 -15.828125 C 5.117188 -15.578125 4.960938 -15.351562 4.765625 -15.15625 C 4.566406 -14.96875 4.335938 -14.816406 4.078125 -14.703125 C 3.816406 -14.597656 3.535156 -14.546875 3.234375 -14.546875 C 2.941406 -14.546875 2.664062 -14.597656 2.40625 -14.703125 C 2.15625 -14.816406 1.929688 -14.96875 1.734375 -15.15625 C 1.546875 -15.351562 1.394531 -15.578125 1.28125 -15.828125 C 1.175781 -16.078125 1.125 -16.347656 1.125 -16.640625 C 1.125 -16.929688 1.175781 -17.203125 1.28125 -17.453125 C 1.394531 -17.710938 1.546875 -17.9375 1.734375 -18.125 C 1.929688 -18.320312 2.15625 -18.472656 2.40625 -18.578125 C 2.664062 -18.691406 2.941406 -18.75 3.234375 -18.75 C 3.535156 -18.75 3.816406 -18.691406 4.078125 -18.578125 C 4.335938 -18.472656 4.566406 -18.320312 4.765625 -18.125 C 4.960938 -17.9375 5.117188 -17.710938 5.234375 -17.453125 C 5.359375 -17.203125 5.421875 -16.929688 5.421875 -16.640625 Z M 5.421875 -16.640625 "/></g></g></g><g fill="rgb(25.489807%, 68.629456%, 43.528748%)" fill-opacity="1"><g transform="translate(136.317112, 46.929449)"><g><path d="M 5.90625 0.203125 C 5.320312 0.203125 4.800781 0.117188 4.34375 -0.046875 C 3.894531 -0.222656 3.515625 -0.46875 3.203125 -0.78125 C 2.890625 -1.101562 2.65625 -1.488281 2.5 -1.9375 C 2.34375 -2.394531 2.265625 -2.910156 2.265625 -3.484375 L 2.265625 -10.46875 L 1.046875 -10.46875 C 0.859375 -10.46875 0.695312 -10.523438 0.5625 -10.640625 C 0.4375 -10.765625 0.375 -10.941406 0.375 -11.171875 L 0.375 -12.53125 L 2.453125 -12.90625 L 3.15625 -16.265625 C 3.25 -16.640625 3.503906 -16.828125 3.921875 -16.828125 L 5.734375 -16.828125 L 5.734375 -12.890625 L 9.078125 -12.890625 L 9.078125 -10.46875 L 5.734375 -10.46875 L 5.734375 -3.703125 C 5.734375 -3.347656 5.816406 -3.066406 5.984375 -2.859375 C 6.160156 -2.648438 6.40625 -2.546875 6.71875 -2.546875 C 6.882812 -2.546875 7.023438 -2.5625 7.140625 -2.59375 C 7.265625 -2.632812 7.367188 -2.675781 7.453125 -2.71875 C 7.535156 -2.769531 7.613281 -2.8125 7.6875 -2.84375 C 7.757812 -2.882812 7.832031 -2.90625 7.90625 -2.90625 C 8.007812 -2.90625 8.09375 -2.878906 8.15625 -2.828125 C 8.226562 -2.785156 8.296875 -2.710938 8.359375 -2.609375 L 9.40625 -0.9375 C 8.925781 -0.5625 8.382812 -0.273438 7.78125 -0.078125 C 7.175781 0.109375 6.550781 0.203125 5.90625 0.203125 Z M 5.90625 0.203125 "/></g></g></g><g fill="rgb(25.489807%, 68.629456%, 43.528748%)" fill-opacity="1"><g transform="translate(145.807488, 46.929449)"><g><path d="M 11.546875 -6.921875 L 9.5625 -12.5 C 9.445312 -12.800781 9.320312 -13.144531 9.1875 -13.53125 C 9.0625 -13.925781 8.941406 -14.359375 8.828125 -14.828125 C 8.703125 -14.347656 8.578125 -13.910156 8.453125 -13.515625 C 8.328125 -13.117188 8.203125 -12.773438 8.078125 -12.484375 L 6.125 -6.921875 Z M 17.875 0 L 14.953125 0 C 14.617188 0 14.347656 -0.078125 14.140625 -0.234375 C 13.941406 -0.390625 13.789062 -0.585938 13.6875 -0.828125 L 12.453125 -4.3125 L 5.1875 -4.3125 L 3.953125 -0.828125 C 3.867188 -0.617188 3.722656 -0.425781 3.515625 -0.25 C 3.304688 -0.0820312 3.046875 0 2.734375 0 L -0.21875 0 L 6.90625 -18.234375 L 10.765625 -18.234375 Z M 17.875 0 "/></g></g></g><g fill="rgb(25.489807%, 68.629456%, 43.528748%)" fill-opacity="1"><g transform="translate(163.455817, 46.929449)"><g><path d="M 4.90625 -3.421875 C 5.226562 -3.046875 5.578125 -2.78125 5.953125 -2.625 C 6.335938 -2.476562 6.75 -2.40625 7.1875 -2.40625 C 7.601562 -2.40625 7.984375 -2.484375 8.328125 -2.640625 C 8.671875 -2.796875 8.96875 -3.039062 9.21875 -3.375 C 9.46875 -3.71875 9.660156 -4.15625 9.796875 -4.6875 C 9.929688 -5.21875 10 -5.847656 10 -6.578125 C 10 -7.296875 9.941406 -7.90625 9.828125 -8.40625 C 9.710938 -8.90625 9.550781 -9.3125 9.34375 -9.625 C 9.132812 -9.9375 8.882812 -10.160156 8.59375 -10.296875 C 8.300781 -10.441406 7.976562 -10.515625 7.625 -10.515625 C 7.007812 -10.515625 6.492188 -10.394531 6.078125 -10.15625 C 5.660156 -9.914062 5.269531 -9.5625 4.90625 -9.09375 Z M 4.703125 -11.265625 C 4.960938 -11.546875 5.238281 -11.804688 5.53125 -12.046875 C 5.820312 -12.285156 6.132812 -12.488281 6.46875 -12.65625 C 6.800781 -12.832031 7.160156 -12.96875 7.546875 -13.0625 C 7.941406 -13.164062 8.363281 -13.21875 8.8125 -13.21875 C 9.507812 -13.21875 10.148438 -13.066406 10.734375 -12.765625 C 11.316406 -12.460938 11.816406 -12.03125 12.234375 -11.46875 C 12.648438 -10.90625 12.972656 -10.210938 13.203125 -9.390625 C 13.441406 -8.566406 13.5625 -7.628906 13.5625 -6.578125 C 13.5625 -5.597656 13.425781 -4.695312 13.15625 -3.875 C 12.894531 -3.050781 12.519531 -2.335938 12.03125 -1.734375 C 11.550781 -1.128906 10.96875 -0.65625 10.28125 -0.3125 C 9.601562 0.0195312 8.84375 0.1875 8 0.1875 C 7.300781 0.1875 6.707031 0.0820312 6.21875 -0.125 C 5.726562 -0.332031 5.289062 -0.617188 4.90625 -0.984375 L 4.90625 4.1875 L 1.4375 4.1875 L 1.4375 -12.953125 L 3.5625 -12.953125 C 4 -12.953125 4.289062 -12.753906 4.4375 -12.359375 Z M 4.703125 -11.265625 "/></g></g></g><g fill="rgb(25.489807%, 68.629456%, 43.528748%)" fill-opacity="1"><g transform="translate(177.810799, 46.929449)"><g><path d="M 4.90625 -3.421875 C 5.226562 -3.046875 5.578125 -2.78125 5.953125 -2.625 C 6.335938 -2.476562 6.75 -2.40625 7.1875 -2.40625 C 7.601562 -2.40625 7.984375 -2.484375 8.328125 -2.640625 C 8.671875 -2.796875 8.96875 -3.039062 9.21875 -3.375 C 9.46875 -3.71875 9.660156 -4.15625 9.796875 -4.6875 C 9.929688 -5.21875 10 -5.847656 10 -6.578125 C 10 -7.296875 9.941406 -7.90625 9.828125 -8.40625 C 9.710938 -8.90625 9.550781 -9.3125 9.34375 -9.625 C 9.132812 -9.9375 8.882812 -10.160156 8.59375 -10.296875 C 8.300781 -10.441406 7.976562 -10.515625 7.625 -10.515625 C 7.007812 -10.515625 6.492188 -10.394531 6.078125 -10.15625 C 5.660156 -9.914062 5.269531 -9.5625 4.90625 -9.09375 Z M 4.703125 -11.265625 C 4.960938 -11.546875 5.238281 -11.804688 5.53125 -12.046875 C 5.820312 -12.285156 6.132812 -12.488281 6.46875 -12.65625 C 6.800781 -12.832031 7.160156 -12.96875 7.546875 -13.0625 C 7.941406 -13.164062 8.363281 -13.21875 8.8125 -13.21875 C 9.507812 -13.21875 10.148438 -13.066406 10.734375 -12.765625 C 11.316406 -12.460938 11.816406 -12.03125 12.234375 -11.46875 C 12.648438 -10.90625 12.972656 -10.210938 13.203125 -9.390625 C 13.441406 -8.566406 13.5625 -7.628906 13.5625 -6.578125 C 13.5625 -5.597656 13.425781 -4.695312 13.15625 -3.875 C 12.894531 -3.050781 12.519531 -2.335938 12.03125 -1.734375 C 11.550781 -1.128906 10.96875 -0.65625 10.28125 -0.3125 C 9.601562 0.0195312 8.84375 0.1875 8 0.1875 C 7.300781 0.1875 6.707031 0.0820312 6.21875 -0.125 C 5.726562 -0.332031 5.289062 -0.617188 4.90625 -0.984375 L 4.90625 4.1875 L 1.4375 4.1875 L 1.4375 -12.953125 L 3.5625 -12.953125 C 4 -12.953125 4.289062 -12.753906 4.4375 -12.359375 Z M 4.703125 -11.265625 "/></g></g></g></svg>